<svg width="129" height="34" viewBox="0 0 129 34" fill="none" xmlns="http://www.w3.org/2000/svg">
<path d="M14.7368 13.5269H17.3441V29.4369H14.7368V13.5269Z" fill="#17313B"/>
<path d="M26.4129 24.395C26.4129 26.8599 24.3724 27.084 23.6922 27.084C22.1052 27.084 21.8785 25.6274 21.8785 24.8431V18.6808H19.2712V24.7311C19.2712 26.1877 19.7246 27.5322 20.6315 28.3164C21.425 29.1007 22.4453 29.4369 23.6922 29.4369C24.5991 29.4369 25.7327 29.2128 26.4129 28.5405V29.4369H29.0202V18.6808H26.4129V24.395Z" fill="#17313B"/>
<path d="M34.1214 14.7594H31.5141V18.6809H29.587V21.1458H31.5141V29.4369H34.1214V21.1458H36.0485V18.6809H34.1214V14.7594Z" fill="#17313B"/>
<path d="M44.2104 26.1876C43.6436 26.6358 42.8501 26.9719 42.0566 26.9719C40.2428 26.9719 38.9959 25.6274 38.9959 23.8347C38.9959 22.0421 40.2428 20.8096 42.0566 20.8096C42.8501 20.8096 43.6436 21.0337 44.2104 21.5939L44.5505 21.93L46.3643 20.2494L45.9108 19.9133C44.8906 19.0169 43.5303 18.4567 42.0566 18.4567C38.8825 18.4567 36.5019 20.8096 36.5019 23.9468C36.5019 27.0839 38.8825 29.4368 42.0566 29.4368C43.5303 29.4368 44.8906 28.8766 45.9108 27.9803L46.3643 27.6442L44.5505 25.8515L44.2104 26.1876Z" fill="#17313B"/>
<path d="M55.5464 19.5772C54.7529 18.7929 53.9594 18.4568 52.7124 18.4568C51.8055 18.4568 50.8987 18.6808 50.2185 19.3531V13.5269H47.6112V29.4369H50.2185V23.4986C50.2185 21.0337 51.9189 20.8096 52.5991 20.8096C54.1861 20.8096 54.0727 22.2662 54.0727 23.0505V29.3248H56.68V23.1625C56.68 21.706 56.3399 20.3615 55.5464 19.5772Z" fill="#17313B"/>
<path d="M41.9432 25.7395C42.9449 25.7395 43.757 24.9369 43.757 23.9468C43.757 22.9568 42.9449 22.1542 41.9432 22.1542C40.9415 22.1542 40.1294 22.9568 40.1294 23.9468C40.1294 24.9369 40.9415 25.7395 41.9432 25.7395Z" fill="#EF4335"/>
<path d="M11.1093 25.5155C10.2024 26.4118 8.84208 26.972 7.3684 26.972C4.5344 26.972 2.49392 24.7312 2.49392 21.706C2.49392 18.6809 4.5344 16.4401 7.48176 16.4401C8.84208 16.4401 10.2024 17.0003 11.2226 18.0087L11.5627 18.3448L13.2631 16.6642L12.923 16.328C11.4494 14.8715 9.52224 14.0872 7.48176 14.0872C3.17408 13.9752 0 17.3364 0 21.706C0 26.0757 3.17408 29.4369 7.3684 29.4369C9.40888 29.4369 11.4494 28.6526 12.8097 27.1961L13.1498 26.86L11.4494 25.1793L11.1093 25.5155Z" fill="#17313B"/>
<path d="M2.66797 6.24658H1.56641V8.43799H0.578125V2.75049H2.57812C3.23438 2.75049 3.74089 2.89762 4.09766 3.19189C4.45443 3.48617 4.63281 3.91195 4.63281 4.46924C4.63281 4.84945 4.54036 5.16846 4.35547 5.42627C4.17318 5.68148 3.91797 5.87809 3.58984 6.01611L4.86719 8.38721V8.43799H3.80859L2.66797 6.24658ZM1.56641 5.45361H2.58203C2.91536 5.45361 3.17578 5.37028 3.36328 5.20361C3.55078 5.03434 3.64453 4.80387 3.64453 4.51221C3.64453 4.20752 3.55729 3.97184 3.38281 3.80518C3.21094 3.63851 2.95312 3.55257 2.60938 3.54736H1.56641V5.45361ZM9.41453 5.89893H7.07859V7.64893H9.80906V8.43799H6.09031V2.75049H9.78172V3.54736H7.07859V5.11768H9.41453V5.89893ZM13.1377 7.19971L14.583 2.75049H15.6689L13.622 8.43799H12.665L10.6259 2.75049H11.708L13.1377 7.19971ZM17.8764 8.43799H16.892V2.75049H17.8764V8.43799ZM22.9355 5.89893H20.5995V7.64893H23.33V8.43799H19.6112V2.75049H23.3027V3.54736H20.5995V5.11768H22.9355V5.89893ZM29.1156 7.03174L29.9906 2.75049H30.9711L29.6586 8.43799H28.7133L27.6313 4.28564L26.5258 8.43799H25.5766L24.2641 2.75049H25.2445L26.1273 7.02393L27.2133 2.75049H28.0414L29.1156 7.03174ZM35.538 5.89893H33.202V7.64893H35.9325V8.43799H32.2137V2.75049H35.9052V3.54736H33.202V5.11768H35.538V5.89893ZM37.2572 8.43799V2.75049H38.9369C39.4395 2.75049 39.8848 2.86247 40.2728 3.08643C40.6634 3.31038 40.9655 3.62809 41.1791 4.03955C41.3926 4.45101 41.4994 4.92236 41.4994 5.45361V5.73877C41.4994 6.27783 41.3913 6.75179 41.1752 7.16064C40.9616 7.5695 40.6556 7.8846 40.2572 8.10596C39.8614 8.32731 39.4069 8.43799 38.8939 8.43799H37.2572ZM38.2455 3.54736V7.64893H38.89C39.4082 7.64893 39.8054 7.48747 40.0814 7.16455C40.3601 6.83903 40.502 6.37288 40.5072 5.76611V5.44971C40.5072 4.83252 40.3731 4.36117 40.1048 4.03564C39.8366 3.71012 39.4473 3.54736 38.9369 3.54736H38.2455ZM50.055 5.74268C50.055 6.29997 49.9586 6.78955 49.7659 7.21143C49.5732 7.6307 49.2972 7.95361 48.9378 8.18018C48.581 8.40413 48.1696 8.51611 47.7034 8.51611C47.2425 8.51611 46.831 8.40413 46.4691 8.18018C46.1097 7.95361 45.831 7.632 45.6331 7.21533C45.4378 6.79867 45.3389 6.3182 45.3363 5.77393V5.45361C45.3363 4.89893 45.4339 4.40934 45.6292 3.98486C45.8271 3.56038 46.1045 3.23617 46.4613 3.01221C46.8206 2.78564 47.2321 2.67236 47.6956 2.67236C48.1592 2.67236 48.5693 2.78434 48.9261 3.0083C49.2855 3.22965 49.5628 3.54997 49.7581 3.96924C49.9534 4.3859 50.0524 4.87158 50.055 5.42627V5.74268ZM49.0667 5.4458C49.0667 4.81559 48.9469 4.33252 48.7073 3.99658C48.4704 3.66064 48.1331 3.49268 47.6956 3.49268C47.2685 3.49268 46.9339 3.66064 46.6917 3.99658C46.4521 4.32992 46.3297 4.80257 46.3245 5.41455V5.74268C46.3245 6.36768 46.4456 6.85075 46.6878 7.19189C46.9326 7.53304 47.2711 7.70361 47.7034 7.70361C48.1409 7.70361 48.4769 7.53695 48.7113 7.20361C48.9482 6.87028 49.0667 6.3833 49.0667 5.74268V5.4458ZM56.0711 8.43799H55.0828L52.5477 4.40283V8.43799H51.5594V2.75049H52.5477L55.0906 6.80127V2.75049H56.0711V8.43799Z" fill="#6A797E"/>
<path d="M70.7451 29.438H69.5635V23.73L67.8203 24.3257V23.3247L70.5938 22.3042H70.7451V29.438ZM78.5973 22.9878L75.7555 29.438H74.5104L77.3473 23.2808H73.6705V22.3286H78.5973V22.9878ZM86.1424 26.6987H84.7654V29.438H83.5301V22.3286H86.0301C86.8504 22.3286 87.4835 22.5125 87.9295 22.8804C88.3755 23.2482 88.5985 23.7804 88.5985 24.4771C88.5985 24.9523 88.4829 25.3511 88.2518 25.6733C88.0239 25.9924 87.7049 26.2381 87.2947 26.4106L88.8914 29.3745V29.438H87.5682L86.1424 26.6987ZM84.7654 25.7075H86.035C86.4516 25.7075 86.7772 25.6034 87.0115 25.395C87.2459 25.1834 87.3631 24.8953 87.3631 24.5308C87.3631 24.1499 87.2541 23.8553 87.036 23.647C86.8211 23.4386 86.4988 23.3312 86.0692 23.3247H84.7654V25.7075ZM94.5756 26.2642H91.6557V28.4517H95.0688V29.438H90.4203V22.3286H95.0346V23.3247H91.6557V25.2876H94.5756V26.2642ZM99.2295 27.8901L101.036 22.3286H102.394L99.835 29.438H98.6387L96.0899 22.3286H97.4424L99.2295 27.8901ZM105.153 29.438H103.922V22.3286H105.153V29.438ZM111.477 26.2642H108.557V28.4517H111.97V29.438H107.321V22.3286H111.936V23.3247H108.557V25.2876H111.477V26.2642ZM119.202 27.6802L120.296 22.3286H121.521L119.881 29.438H118.699L117.347 24.2476L115.965 29.438H114.778L113.138 22.3286H114.363L115.467 27.6704L116.824 22.3286H117.859L119.202 27.6802ZM126.79 27.6069C126.79 27.2944 126.68 27.0535 126.458 26.8843C126.24 26.715 125.845 26.5441 125.272 26.3716C124.699 26.1991 124.243 26.007 123.905 25.7954C123.257 25.3885 122.933 24.8579 122.933 24.2036C122.933 23.6307 123.166 23.1587 123.631 22.7876C124.1 22.4165 124.707 22.231 125.453 22.231C125.947 22.231 126.388 22.3221 126.776 22.5044C127.163 22.6867 127.468 22.9471 127.689 23.2856C127.91 23.6209 128.021 23.9937 128.021 24.4038H126.79C126.79 24.0327 126.673 23.743 126.439 23.5347C126.208 23.3231 125.876 23.2173 125.443 23.2173C125.039 23.2173 124.725 23.3035 124.5 23.4761C124.279 23.6486 124.168 23.8895 124.168 24.1987C124.168 24.4591 124.289 24.6772 124.53 24.853C124.771 25.0256 125.168 25.1948 125.721 25.3608C126.274 25.5236 126.719 25.7108 127.054 25.9224C127.389 26.1307 127.635 26.3716 127.791 26.645C127.948 26.9152 128.026 27.2326 128.026 27.5972C128.026 28.1896 127.798 28.6616 127.342 29.0132C126.89 29.3615 126.274 29.5356 125.496 29.5356C124.982 29.5356 124.509 29.4412 124.076 29.2524C123.646 29.0604 123.311 28.7967 123.07 28.4614C122.832 28.1261 122.713 27.7355 122.713 27.2896H123.949C123.949 27.6932 124.082 28.0057 124.349 28.2271C124.616 28.4484 124.998 28.5591 125.496 28.5591C125.926 28.5591 126.248 28.4728 126.463 28.3003C126.681 28.1245 126.79 27.8934 126.79 27.6069Z" fill="#6A797E"/>
<path d="M73.6413 2.16478C73.788 1.86748 74.212 1.86748 74.3587 2.16478L75.6703 4.82236C75.7286 4.94042 75.8412 5.02225 75.9715 5.04118L78.9043 5.46734C79.2324 5.51501 79.3634 5.9182 79.126 6.14962L77.0038 8.21825C76.9095 8.31015 76.8665 8.44255 76.8887 8.57231L77.3897 11.4933C77.4458 11.82 77.1028 12.0692 76.8093 11.9149L74.1862 10.5358C74.0696 10.4746 73.9304 10.4746 73.8139 10.5358L71.1907 11.9149C70.8972 12.0692 70.5543 11.82 70.6103 11.4933L71.1113 8.57231C71.1336 8.44255 71.0905 8.31015 70.9963 8.21825L68.8741 6.14962C68.6366 5.9182 68.7677 5.51501 69.0957 5.46734L72.0286 5.04118C72.1588 5.02225 72.2715 4.94042 72.3297 4.82236L73.6413 2.16478Z" fill="#E93F33"/>
<path d="M85.6413 2.16478C85.788 1.86748 86.212 1.86748 86.3587 2.16478L87.6703 4.82236C87.7286 4.94042 87.8412 5.02225 87.9715 5.04118L90.9043 5.46734C91.2324 5.51501 91.3634 5.9182 91.126 6.14962L89.0038 8.21825C88.9095 8.31015 88.8665 8.44255 88.8887 8.57231L89.3897 11.4933C89.4458 11.82 89.1028 12.0692 88.8093 11.9149L86.1862 10.5358C86.0696 10.4746 85.9304 10.4746 85.8139 10.5358L83.1907 11.9149C82.8972 12.0692 82.5543 11.82 82.6103 11.4933L83.1113 8.57231C83.1336 8.44255 83.0905 8.31015 82.9963 8.21825L80.8741 6.14962C80.6366 5.9182 80.7677 5.51501 81.0957 5.46734L84.0286 5.04118C84.1588 5.02225 84.2715 4.94042 84.3297 4.82236L85.6413 2.16478Z" fill="#E93F33"/>
<path d="M97.6413 2.16478C97.788 1.86748 98.212 1.86748 98.3587 2.16478L99.6703 4.82236C99.7286 4.94042 99.8412 5.02225 99.9715 5.04118L102.904 5.46734C103.232 5.51501 103.363 5.9182 103.126 6.14962L101.004 8.21825C100.909 8.31015 100.866 8.44255 100.889 8.57231L101.39 11.4933C101.446 11.82 101.103 12.0692 100.809 11.9149L98.1862 10.5358C98.0696 10.4746 97.9304 10.4746 97.8139 10.5358L95.1907 11.9149C94.8972 12.0692 94.5543 11.82 94.6103 11.4933L95.1113 8.57231C95.1336 8.44255 95.0905 8.31015 94.9963 8.21825L92.8741 6.14962C92.6366 5.9182 92.7677 5.51501 93.0957 5.46734L96.0286 5.04118C96.1588 5.02225 96.2715 4.94042 96.3297 4.82236L97.6413 2.16478Z" fill="#E93F33"/>
<path d="M109.641 2.16478C109.788 1.86748 110.212 1.86748 110.359 2.16478L111.67 4.82236C111.729 4.94042 111.841 5.02225 111.971 5.04118L114.904 5.46734C115.232 5.51501 115.363 5.9182 115.126 6.14962L113.004 8.21825C112.909 8.31015 112.866 8.44255 112.889 8.57231L113.39 11.4933C113.446 11.82 113.103 12.0692 112.809 11.9149L110.186 10.5358C110.07 10.4746 109.93 10.4746 109.814 10.5358L107.191 11.9149C106.897 12.0692 106.554 11.82 106.61 11.4933L107.111 8.57231C107.134 8.44255 107.091 8.31015 106.996 8.21825L104.874 6.14962C104.637 5.9182 104.768 5.51501 105.096 5.46734L108.029 5.04118C108.159 5.02225 108.271 4.94042 108.33 4.82236L109.641 2.16478Z" fill="#E93F33"/>
<path d="M121.641 2.16478C121.788 1.86748 122.212 1.86748 122.359 2.16478L123.67 4.82236C123.729 4.94042 123.841 5.02225 123.971 5.04118L126.904 5.46734C127.232 5.51501 127.363 5.9182 127.126 6.14962L125.004 8.21825C124.909 8.31015 124.866 8.44255 124.889 8.57231L125.39 11.4933C125.446 11.82 125.103 12.0692 124.809 11.9149L122.186 10.5358C122.07 10.4746 121.93 10.4746 121.814 10.5358L119.191 11.9149C118.897 12.0692 118.554 11.82 118.61 11.4933L119.111 8.57231C119.134 8.44255 119.091 8.31015 118.996 8.21825L116.874 6.14962C116.637 5.9182 116.768 5.51501 117.096 5.46734L120.029 5.04118C120.159 5.02225 120.271 4.94042 120.33 4.82236L121.641 2.16478Z" fill="#E93F33"/>
</svg>
