<svg width="104" height="29" viewBox="0 0 104 29" fill="none" xmlns="http://www.w3.org/2000/svg">
<path d="M22.4502 17.2568L25.2939 9.04688H26.7295L23.0381 19H21.876L18.1914 9.04688H19.6201L22.4502 17.2568ZM30.6396 19.1367C29.637 19.1367 28.8213 18.8086 28.1924 18.1523C27.5635 17.4915 27.249 16.6097 27.249 15.5068V15.2744C27.249 14.5407 27.388 13.8867 27.666 13.3125C27.9486 12.7337 28.3405 12.2826 28.8418 11.959C29.3477 11.6309 29.8945 11.4668 30.4824 11.4668C31.444 11.4668 32.1914 11.7835 32.7246 12.417C33.2578 13.0505 33.5244 13.9574 33.5244 15.1377V15.6641H28.5137C28.5319 16.3932 28.7438 16.9834 29.1494 17.4346C29.5596 17.8812 30.0791 18.1045 30.708 18.1045C31.1546 18.1045 31.5329 18.0133 31.8428 17.8311C32.1527 17.6488 32.4238 17.4072 32.6562 17.1064L33.4287 17.708C32.8089 18.6605 31.8792 19.1367 30.6396 19.1367ZM30.4824 12.5059C29.972 12.5059 29.5436 12.6927 29.1973 13.0664C28.8509 13.4355 28.6367 13.9551 28.5547 14.625H32.2598V14.5293C32.2233 13.8867 32.0501 13.39 31.7402 13.0391C31.4303 12.6836 31.0111 12.5059 30.4824 12.5059ZM38.5693 12.7383C38.3779 12.7064 38.1706 12.6904 37.9473 12.6904C37.1178 12.6904 36.555 13.0436 36.2588 13.75V19H34.9941V11.6035H36.2246L36.2451 12.458C36.6598 11.7972 37.2477 11.4668 38.0088 11.4668C38.2549 11.4668 38.4417 11.4987 38.5693 11.5625V12.7383ZM41.1123 19H39.8477V11.6035H41.1123V19ZM39.7451 9.6416C39.7451 9.43652 39.8066 9.26335 39.9297 9.12207C40.0573 8.98079 40.2441 8.91016 40.4902 8.91016C40.7363 8.91016 40.9232 8.98079 41.0508 9.12207C41.1784 9.26335 41.2422 9.43652 41.2422 9.6416C41.2422 9.84668 41.1784 10.0176 41.0508 10.1543C40.9232 10.291 40.7363 10.3594 40.4902 10.3594C40.2441 10.3594 40.0573 10.291 39.9297 10.1543C39.8066 10.0176 39.7451 9.84668 39.7451 9.6416ZM43.5664 19V12.5811H42.3975V11.6035H43.5664V10.9746C43.5664 10.1497 43.8011 9.50716 44.2705 9.04688C44.7445 8.58659 45.4121 8.35645 46.2734 8.35645C46.7839 8.35645 47.4287 8.49544 48.208 8.77344L47.9961 9.83984C47.4264 9.61198 46.8841 9.49805 46.3691 9.49805C45.8268 9.49805 45.4349 9.62109 45.1934 9.86719C44.9564 10.1087 44.8379 10.4733 44.8379 10.9609V11.6035H46.3486V12.5811H44.8379V19H43.5664ZM48.8369 19H47.5654V11.6035H48.8369V19ZM53.9639 19.1367C52.9613 19.1367 52.1455 18.8086 51.5166 18.1523C50.8877 17.4915 50.5732 16.6097 50.5732 15.5068V15.2744C50.5732 14.5407 50.7122 13.8867 50.9902 13.3125C51.2728 12.7337 51.6647 12.2826 52.166 11.959C52.6719 11.6309 53.2188 11.4668 53.8066 11.4668C54.7682 11.4668 55.5156 11.7835 56.0488 12.417C56.582 13.0505 56.8486 13.9574 56.8486 15.1377V15.6641H51.8379C51.8561 16.3932 52.068 16.9834 52.4736 17.4346C52.8838 17.8812 53.4033 18.1045 54.0322 18.1045C54.4788 18.1045 54.8571 18.0133 55.167 17.8311C55.4769 17.6488 55.748 17.4072 55.9805 17.1064L56.7529 17.708C56.1331 18.6605 55.2035 19.1367 53.9639 19.1367ZM53.8066 12.5059C53.2962 12.5059 52.8678 12.6927 52.5215 13.0664C52.1751 13.4355 51.9609 13.9551 51.8789 14.625H55.584V14.5293C55.5475 13.8867 55.3743 13.39 55.0645 13.0391C54.7546 12.6836 54.3353 12.5059 53.8066 12.5059ZM58.0107 15.2402C58.0107 14.1055 58.2796 13.194 58.8174 12.5059C59.3551 11.8132 60.0592 11.4668 60.9297 11.4668C61.7956 11.4668 62.4814 11.763 62.9873 12.3555V8.5H64.252V19H63.0898L63.0283 18.207C62.5225 18.8268 61.8184 19.1367 60.916 19.1367C60.0592 19.1367 59.3597 18.7858 58.8174 18.084C58.2796 17.3822 58.0107 16.4661 58.0107 15.3359V15.2402ZM59.2754 15.3838C59.2754 16.2223 59.4486 16.8786 59.7949 17.3525C60.1413 17.8265 60.6198 18.0635 61.2305 18.0635C62.0326 18.0635 62.6182 17.7035 62.9873 16.9834V13.5859C62.609 12.8887 62.028 12.54 61.2441 12.54C60.6243 12.54 60.1413 12.7793 59.7949 13.2578C59.4486 13.7363 59.2754 14.445 59.2754 15.3838ZM69.8916 19V9.04688H73.1455C74.2256 9.04688 75.0368 9.27018 75.5791 9.7168C76.126 10.1634 76.3994 10.8242 76.3994 11.6992C76.3994 12.1641 76.2673 12.5765 76.0029 12.9365C75.7386 13.292 75.3786 13.5677 74.9229 13.7637C75.4606 13.9141 75.8844 14.2012 76.1943 14.625C76.5088 15.0443 76.666 15.5456 76.666 16.1289C76.666 17.0221 76.3766 17.724 75.7979 18.2344C75.2191 18.7448 74.401 19 73.3438 19H69.8916ZM71.2041 14.3447V17.9268H73.3711C73.9818 17.9268 74.4626 17.7695 74.8135 17.4551C75.1689 17.1361 75.3467 16.6986 75.3467 16.1426C75.3467 14.944 74.695 14.3447 73.3916 14.3447H71.2041ZM71.2041 13.292H73.1865C73.7607 13.292 74.2188 13.1484 74.5605 12.8613C74.9069 12.5742 75.0801 12.1846 75.0801 11.6924C75.0801 11.1455 74.9206 10.749 74.6016 10.5029C74.2826 10.2523 73.7972 10.127 73.1455 10.127H71.2041V13.292ZM82.9824 18.2686C82.4902 18.8473 81.7679 19.1367 80.8154 19.1367C80.027 19.1367 79.4255 18.9089 79.0107 18.4531C78.6006 17.9928 78.3932 17.3138 78.3887 16.416V11.6035H79.6533V16.3818C79.6533 17.5029 80.109 18.0635 81.0205 18.0635C81.9867 18.0635 82.6292 17.7035 82.9482 16.9834V11.6035H84.2129V19H83.0098L82.9824 18.2686ZM88.5605 17.1475L90.2832 11.6035H91.6367L88.6631 20.1416C88.2028 21.3721 87.4714 21.9873 86.4688 21.9873L86.2295 21.9668L85.7578 21.8779V20.8525L86.0996 20.8799C86.528 20.8799 86.8607 20.7933 87.0977 20.6201C87.3392 20.4469 87.5374 20.1302 87.6924 19.6699L87.9727 18.918L85.334 11.6035H86.7148L88.5605 17.1475ZM95.7451 19.1367C94.7425 19.1367 93.9268 18.8086 93.2979 18.1523C92.6689 17.4915 92.3545 16.6097 92.3545 15.5068V15.2744C92.3545 14.5407 92.4935 13.8867 92.7715 13.3125C93.054 12.7337 93.446 12.2826 93.9473 11.959C94.4531 11.6309 95 11.4668 95.5879 11.4668C96.5495 11.4668 97.2969 11.7835 97.8301 12.417C98.3633 13.0505 98.6299 13.9574 98.6299 15.1377V15.6641H93.6191C93.6374 16.3932 93.8493 16.9834 94.2549 17.4346C94.665 17.8812 95.1846 18.1045 95.8135 18.1045C96.2601 18.1045 96.6383 18.0133 96.9482 17.8311C97.2581 17.6488 97.5293 17.4072 97.7617 17.1064L98.5342 17.708C97.9144 18.6605 96.9847 19.1367 95.7451 19.1367ZM95.5879 12.5059C95.0775 12.5059 94.6491 12.6927 94.3027 13.0664C93.9564 13.4355 93.7422 13.9551 93.6602 14.625H97.3652V14.5293C97.3288 13.8867 97.1556 13.39 96.8457 13.0391C96.5358 12.6836 96.1165 12.5059 95.5879 12.5059ZM103.675 12.7383C103.483 12.7064 103.276 12.6904 103.053 12.6904C102.223 12.6904 101.66 13.0436 101.364 13.75V19H100.1V11.6035H101.33L101.351 12.458C101.765 11.7972 102.353 11.4668 103.114 11.4668C103.36 11.4668 103.547 11.4987 103.675 11.5625V12.7383Z" fill="#00B67E"/>
<path d="M7 8.875C5.78859 8.875 4.60439 9.23423 3.59713 9.90725C2.58988 10.5803 1.80483 11.5369 1.34124 12.6561C0.877654 13.7753 0.756358 15.0068 0.992693 16.1949C1.22903 17.3831 1.81238 18.4744 2.66897 19.331C3.52557 20.1876 4.61694 20.771 5.80507 21.0073C6.99321 21.2436 8.22474 21.1223 9.34394 20.6588C10.4631 20.1952 11.4197 19.4101 12.0928 18.4029C12.7658 17.3956 13.125 16.2114 13.125 15C13.125 13.3755 12.4797 11.8176 11.331 10.669C10.1824 9.52031 8.62445 8.875 7 8.875V8.875ZM6.125 17.4456L3.9375 15.2581L4.63313 14.5625L6.125 16.0544L9.36688 12.8125L10.0651 13.5064L6.125 17.4456Z" fill="#00B67E"/>
</svg>
