<svg width="14" height="10" viewBox="0 0 14 10" fill="none" xmlns="http://www.w3.org/2000/svg">
<g clip-path="url(#clip0)">
<path d="M3.28418 0H10.7142V10H3.28418V0Z" fill="white"/>
<path d="M-0.429932 0H3.28403V10H-0.429932V0ZM10.714 0H14.428V10H10.7161L10.714 0ZM4.39761 4.83203L4.10639 4.92578L5.44966 6.04883C5.5522 6.33594 5.41479 6.41992 5.32661 6.57227L6.78266 6.39648L6.7478 7.79297L7.05132 7.78516L6.98364 6.39844L8.4438 6.56445C8.35356 6.38281 8.27358 6.28711 8.35561 5.99805L9.69682 4.93359L9.46303 4.85156C9.27026 4.71094 9.54506 4.17383 9.58608 3.83398C9.58608 3.83398 8.80473 4.08984 8.75346 3.95508L8.55249 3.58984L7.84087 4.33594C7.76294 4.35352 7.73012 4.32422 7.71167 4.26172L8.03979 2.70312L7.51889 2.98242C7.47583 3.00195 7.43276 2.98633 7.40405 2.9375L6.90161 1.98047L6.38481 2.97461C6.34585 3.00977 6.30688 3.01367 6.27407 2.99023L5.77778 2.72461L6.07719 4.26953C6.05259 4.33203 5.99516 4.34766 5.92954 4.31445L5.24663 3.57812C5.15844 3.71484 5.09897 3.93555 4.98003 3.98633C4.86313 4.0332 4.46733 3.89258 4.20278 3.83789C4.29302 4.14844 4.57602 4.66406 4.39761 4.83398V4.83203Z" fill="#FF0000"/>
</g>
<defs>
<clipPath id="clip0">
<rect width="14" height="10" fill="white"/>
</clipPath>
</defs>
</svg>
