<svg width="151" height="27" viewBox="0 0 151 27" fill="none" xmlns="http://www.w3.org/2000/svg">
<rect width="27" height="27" fill="#00B67E"/>
<path d="M13.5 3L16.2156 9.76234L23.4861 10.2553L17.8939 14.9277L19.6717 21.9947L13.5 18.12L7.32825 21.9947L9.10612 14.9277L3.51391 10.2553L10.7844 9.76234L13.5 3Z" fill="white"/>
<rect x="31" width="27" height="27" fill="#00B67E"/>
<path d="M44.5 3L47.2156 9.76234L54.4861 10.2553L48.8939 14.9277L50.6717 21.9947L44.5 18.12L38.3283 21.9947L40.1061 14.9277L34.5139 10.2553L41.7844 9.76234L44.5 3Z" fill="white"/>
<rect x="62" width="27" height="27" fill="#00B67E"/>
<path d="M75.5 3L78.2156 9.76234L85.4861 10.2553L79.8939 14.9277L81.6717 21.9947L75.5 18.12L69.3283 21.9947L71.1061 14.9277L65.5139 10.2553L72.7844 9.76234L75.5 3Z" fill="white"/>
<rect x="93" width="27" height="27" fill="#00B67E"/>
<path d="M106.5 3L109.216 9.76234L116.486 10.2553L110.894 14.9277L112.672 21.9947L106.5 18.12L100.328 21.9947L102.106 14.9277L96.5139 10.2553L103.784 9.76234L106.5 3Z" fill="white"/>
<rect x="124" width="27" height="27" fill="#00B67E"/>
<path d="M137.5 3L140.216 9.76234L147.486 10.2553L141.894 14.9277L143.672 21.9947L137.5 18.12L131.328 21.9947L133.106 14.9277L127.514 10.2553L134.784 9.76234L137.5 3Z" fill="white"/>
</svg>
