<svg width="94" height="21" viewBox="0 0 94 21" fill="none" xmlns="http://www.w3.org/2000/svg">
<path d="M10.5 0L13.2156 6.76234L20.4861 7.25532L14.8939 11.9277L16.6717 18.9947L10.5 15.12L4.32825 18.9947L6.10612 11.9277L0.513906 7.25532L7.78443 6.76234L10.5 0Z" fill="#00B67E"/>
<path d="M34.2881 6.21875H30.7412V16H28.7803V6.21875H25.2646V4.625H34.2881V6.21875ZM39.5146 9.28125C39.2646 9.23958 39.0068 9.21875 38.7412 9.21875C37.8714 9.21875 37.2855 9.55208 36.9834 10.2188V16H35.0849V7.54688H36.8974L36.9443 8.49219C37.4027 7.75781 38.0381 7.39062 38.8506 7.39062C39.1214 7.39062 39.3454 7.42708 39.5224 7.5L39.5146 9.28125ZM45.8349 15.1719C45.2777 15.8281 44.486 16.1562 43.4599 16.1562C42.5433 16.1562 41.848 15.888 41.374 15.3516C40.9053 14.8151 40.6709 14.0391 40.6709 13.0234V7.54688H42.5693V13C42.5693 14.0729 43.0146 14.6094 43.9053 14.6094C44.8271 14.6094 45.4495 14.2786 45.7724 13.6172V7.54688H47.6709V16H45.8818L45.8349 15.1719ZM54.3428 13.7031C54.3428 13.3646 54.2021 13.1068 53.9209 12.9297C53.6448 12.7526 53.1839 12.5964 52.5381 12.4609C51.8922 12.3255 51.3532 12.1536 50.9209 11.9453C49.973 11.487 49.499 10.8229 49.499 9.95312C49.499 9.22396 49.8063 8.61458 50.4209 8.125C51.0355 7.63542 51.8167 7.39062 52.7646 7.39062C53.775 7.39062 54.5902 7.64062 55.2099 8.14062C55.8349 8.64062 56.1474 9.28906 56.1474 10.0859H54.249C54.249 9.72135 54.1136 9.41927 53.8428 9.17969C53.5719 8.9349 53.2125 8.8125 52.7646 8.8125C52.348 8.8125 52.0068 8.90885 51.7412 9.10156C51.4808 9.29427 51.3506 9.55208 51.3506 9.875C51.3506 10.1667 51.473 10.3932 51.7178 10.5547C51.9625 10.7161 52.4573 10.8802 53.2021 11.0469C53.9469 11.2083 54.5303 11.4036 54.9521 11.6328C55.3792 11.8568 55.6943 12.1276 55.8974 12.4453C56.1058 12.763 56.2099 13.1484 56.2099 13.6016C56.2099 14.362 55.8948 14.9792 55.2646 15.4531C54.6344 15.9219 53.8089 16.1562 52.7881 16.1562C52.0954 16.1562 51.4782 16.0312 50.9365 15.7812C50.3948 15.5312 49.973 15.1875 49.6709 14.75C49.3688 14.3125 49.2178 13.8411 49.2178 13.3359H51.0615C51.0875 13.7839 51.2568 14.1302 51.5693 14.375C51.8818 14.6146 52.2959 14.7344 52.8115 14.7344C53.3115 14.7344 53.6917 14.6406 53.9521 14.4531C54.2125 14.2604 54.3428 14.0104 54.3428 13.7031ZM60.249 5.49219V7.54688H61.7412V8.95312H60.249V13.6719C60.249 13.9948 60.3115 14.2292 60.4365 14.375C60.5667 14.5156 60.7959 14.5859 61.124 14.5859C61.3428 14.5859 61.5641 14.5599 61.7881 14.5078V15.9766C61.3558 16.0964 60.9391 16.1562 60.5381 16.1562C59.0797 16.1562 58.3506 15.3516 58.3506 13.7422V8.95312H56.9599V7.54688H58.3506V5.49219H60.249ZM70.6006 11.8594C70.6006 13.1667 70.3037 14.2109 69.7099 14.9922C69.1162 15.7682 68.3193 16.1562 67.3193 16.1562C66.3922 16.1562 65.65 15.8516 65.0928 15.2422V19.25H63.1943V7.54688H64.9443L65.0224 8.40625C65.5797 7.72917 66.3375 7.39062 67.2959 7.39062C68.3271 7.39062 69.1344 7.77604 69.7178 8.54688C70.3063 9.3125 70.6006 10.3776 70.6006 11.7422V11.8594ZM68.7099 11.6953C68.7099 10.8516 68.5407 10.1823 68.2021 9.6875C67.8688 9.19271 67.3896 8.94531 66.7646 8.94531C65.9886 8.94531 65.4313 9.26562 65.0928 9.90625V13.6562C65.4365 14.3125 65.999 14.6406 66.7803 14.6406C67.3844 14.6406 67.8558 14.3984 68.1943 13.9141C68.5381 13.4245 68.7099 12.6849 68.7099 11.6953ZM74.2334 16H72.3349V7.54688H74.2334V16ZM72.2178 5.35156C72.2178 5.0599 72.3089 4.81771 72.4912 4.625C72.6787 4.43229 72.9443 4.33594 73.2881 4.33594C73.6318 4.33594 73.8974 4.43229 74.0849 4.625C74.2724 4.81771 74.3662 5.0599 74.3662 5.35156C74.3662 5.63802 74.2724 5.8776 74.0849 6.07031C73.8974 6.25781 73.6318 6.35156 73.2881 6.35156C72.9443 6.35156 72.6787 6.25781 72.4912 6.07031C72.3089 5.8776 72.2178 5.63802 72.2178 5.35156ZM78.3271 16H76.4287V4H78.3271V16ZM80.0459 11.6953C80.0459 10.8672 80.2099 10.1224 80.5381 9.46094C80.8662 8.79427 81.3271 8.28385 81.9209 7.92969C82.5146 7.57031 83.1969 7.39062 83.9678 7.39062C85.1084 7.39062 86.0329 7.75781 86.7412 8.49219C87.4547 9.22656 87.8402 10.2005 87.8974 11.4141L87.9053 11.8594C87.9053 12.6927 87.7438 13.4375 87.4209 14.0938C87.1032 14.75 86.6448 15.2578 86.0459 15.6172C85.4521 15.9766 84.7646 16.1562 83.9834 16.1562C82.7907 16.1562 81.8349 15.7604 81.1162 14.9688C80.4027 14.1719 80.0459 13.112 80.0459 11.7891V11.6953ZM81.9443 11.8594C81.9443 12.7292 82.124 13.4115 82.4834 13.9062C82.8428 14.3958 83.3428 14.6406 83.9834 14.6406C84.624 14.6406 85.1214 14.3906 85.4756 13.8906C85.8349 13.3906 86.0146 12.6589 86.0146 11.6953C86.0146 10.8411 85.8297 10.1641 85.4599 9.66406C85.0954 9.16406 84.598 8.91406 83.9678 8.91406C83.348 8.91406 82.8558 9.16146 82.4912 9.65625C82.1266 10.1458 81.9443 10.8802 81.9443 11.8594ZM91.8896 5.49219V7.54688H93.3818V8.95312H91.8896V13.6719C91.8896 13.9948 91.9521 14.2292 92.0771 14.375C92.2073 14.5156 92.4365 14.5859 92.7646 14.5859C92.9834 14.5859 93.2047 14.5599 93.4287 14.5078V15.9766C92.9964 16.0964 92.5797 16.1562 92.1787 16.1562C90.7204 16.1562 89.9912 15.3516 89.9912 13.7422V8.95312H88.6006V7.54688H89.9912V5.49219H91.8896Z" fill="black"/>
</svg>
