<svg width="28" height="28" viewBox="0 0 28 28" fill="none" xmlns="http://www.w3.org/2000/svg">
<circle cx="14" cy="14" r="13.5" fill="#F9B749" stroke="white"/>
<path d="M19.25 12.25H15.75V8.75C15.75 8.28587 15.5656 7.84075 15.2374 7.51256C14.9092 7.18437 14.4641 7 14 7C13.5359 7 13.0908 7.18437 12.7626 7.51256C12.4344 7.84075 12.25 8.28587 12.25 8.75V12.25H8.75C8.28587 12.25 7.84075 12.4344 7.51256 12.7626C7.18437 13.0908 7 13.5359 7 14C7 14.4641 7.18437 14.9092 7.51256 15.2374C7.84075 15.5656 8.28587 15.75 8.75 15.75H12.25V19.25C12.25 19.7141 12.4344 20.1592 12.7626 20.4874C13.0908 20.8156 13.5359 21 14 21C14.4641 21 14.9092 20.8156 15.2374 20.4874C15.5656 20.1592 15.75 19.7141 15.75 19.25V15.75H19.25C19.7141 15.75 20.1592 15.5656 20.4874 15.2374C20.8156 14.9092 21 14.4641 21 14C21 13.5359 20.8156 13.0908 20.4874 12.7626C20.1592 12.4344 19.7141 12.25 19.25 12.25Z" fill="white"/>
</svg>
