<svg width="19" height="19" viewBox="0 0 19 19" fill="none" xmlns="http://www.w3.org/2000/svg">
<path d="M16.6689 9.54394C16.6689 5.60892 13.479 2.41895 9.54394 2.41895C5.60892 2.41895 2.41895 5.60892 2.41895 9.54394C2.41895 13.479 5.60892 16.6689 9.54394 16.6689C13.479 16.6689 16.6689 13.479 16.6689 9.54394Z" fill="#3856A7" stroke="#3856A7" stroke-width="1.1875" stroke-linecap="round" stroke-linejoin="round"/>
<path d="M11.2902 7.93478C11.2902 7.50705 11.1202 7.09684 10.8178 6.79439C10.5153 6.49194 10.1051 6.32202 9.67731 6.32202C9.24955 6.32202 8.83932 6.49194 8.53685 6.79439C8.23438 7.09684 8.06445 7.50705 8.06445 7.93478" stroke="#FBFBFD" stroke-width="1.1875" stroke-linecap="round" stroke-linejoin="round"/>
<path d="M9.6767 12.805C9.61543 12.8034 9.5551 12.8202 9.50349 12.8533C9.45188 12.8863 9.41137 12.9341 9.38718 12.9904C9.36299 13.0467 9.35624 13.109 9.36781 13.1692C9.37938 13.2293 9.40872 13.2847 9.45205 13.328C9.49539 13.3713 9.55073 13.4007 9.61092 13.4123C9.67111 13.4238 9.73338 13.4171 9.78969 13.3929C9.84601 13.3687 9.89377 13.3282 9.92682 13.2766C9.95987 13.225 9.97668 13.1646 9.97509 13.1034C9.97509 13.0243 9.94365 12.9484 9.88769 12.8924C9.83173 12.8365 9.75584 12.805 9.6767 12.805Z" fill="white"/>
<path d="M9.6767 12.805C9.61543 12.8034 9.5551 12.8202 9.50349 12.8533C9.45188 12.8863 9.41137 12.9341 9.38718 12.9904C9.36299 13.0467 9.35624 13.109 9.36781 13.1692C9.37938 13.2293 9.40872 13.2847 9.45205 13.328C9.49539 13.3713 9.55073 13.4007 9.61092 13.4123C9.67111 13.4238 9.73338 13.4171 9.78969 13.3929C9.84601 13.3687 9.89377 13.3282 9.92682 13.2766C9.95987 13.225 9.97668 13.1646 9.97509 13.1034C9.97509 13.0243 9.94365 12.9484 9.88769 12.8924C9.83173 12.8365 9.75584 12.805 9.6767 12.805" stroke="#FBFBFD" stroke-width="1.1875" stroke-miterlimit="10"/>
<path d="M11.2899 7.93457C11.2796 8.19704 11.1994 8.452 11.0576 8.67314C10.9159 8.89427 10.7176 9.07356 10.4834 9.1925" stroke="#FBFBFD" stroke-width="1.1875" stroke-linecap="round" stroke-linejoin="round"/>
<path d="M9.67676 10.4829C9.68389 10.2154 9.76243 9.95476 9.90423 9.7279C10.046 9.50104 10.2459 9.31623 10.4832 9.19263" stroke="#FBFBFD" stroke-width="1.1875" stroke-linecap="round" stroke-linejoin="round"/>
<path d="M9.67676 10.4829V10.6845" stroke="#FBFBFD" stroke-width="1.1875" stroke-linecap="round" stroke-linejoin="round"/>
</svg>
